<svg xmlns:dc="http://purl.org/dc/elements/1.1/" xmlns:cc="http://creativecommons.org/ns#" xmlns:rdf="http://www.w3.org/1999/02/22-rdf-syntax-ns#" xmlns:svg="http://www.w3.org/2000/svg" xmlns="http://www.w3.org/2000/svg" xmlns:sodipodi="http://sodipodi.sourceforge.net/DTD/sodipodi-0.dtd" xmlns:inkscape="http://www.inkscape.org/namespaces/inkscape" viewBox="0 0 17 17" version="1.1" x="0px" y="0px"><g><path style="color:#000000;font-style:normal;font-variant:normal;font-weight:normal;font-stretch:normal;font-size:medium;line-height:normal;font-family:sans-serif;font-variant-ligatures:normal;font-variant-position:normal;font-variant-caps:normal;font-variant-numeric:normal;font-variant-alternates:normal;font-feature-settings:normal;text-indent:0;text-align:start;text-decoration:none;text-decoration-line:none;text-decoration-style:solid;text-decoration-color:#000000;letter-spacing:normal;word-spacing:normal;text-transform:none;writing-mode:lr-tb;direction:ltr;text-orientation:mixed;dominant-baseline:auto;baseline-shift:baseline;text-anchor:start;white-space:normal;shape-padding:0;clip-rule:nonzero;display:inline;overflow:visible;visibility:visible;opacity:1;isolation:auto;mix-blend-mode:normal;color-interpolation:sRGB;color-interpolation-filters:linearRGB;solid-color:#000000;solid-opacity:1;vector-effect:none;fill:#000000;fill-opacity:1;fill-rule:nonzero;stroke:none;stroke-width:0.52916658;stroke-linecap:butt;stroke-linejoin:round;stroke-miterlimit:4;stroke-dasharray:none;stroke-dashoffset:0;stroke-opacity:1;color-rendering:auto;image-rendering:auto;shape-rendering:auto;text-rendering:auto;enable-background:accumulate" d="M 1.5541688,1.0579325 C 1.4186821,1.0592025 1.2925481,1.1263425 1.2167217,1.2057271 1.1156197,1.311574 1.0585917,1.4424795 1.0585918,1.5964009 V 13.752765 c 0,0.153922 0.090695,0.299062 0.1855184,0.374654 0.094824,0.07559 0.1886021,0.109786 0.2713012,0.13901 l 4.4860312,1.585949 c 0.059838,0.02069 0.1251106,0.01923 0.1839679,-0.0041 l 4.6699985,-1.810742 4.37286,1.808675 c 0.185162,0.0766 0.387174,-0.0098 0.488342,-0.116789 0.101167,-0.107023 0.15813,-0.234984 0.15813,-0.390672 V 3.1802836 c 0,-0.1539558 -0.09072,-0.297578 -0.185519,-0.3731038 -0.0948,-0.075526 -0.188811,-0.1113092 -0.271301,-0.1405599 L 10.946876,1.0827372 c -0.03373,-0.012263 -0.06959,-0.017537 -0.10542,-0.015503 -0.02253,0.00164 -0.04476,0.00615 -0.06615,0.013436 L 6.0934265,2.6371643 5.8159241,2.5389791 c 0.00497,-0.047863 0.00982,-0.095739 0.00982,-0.1436605 0,-0.7302267 -0.5951429,-1.3280842 -1.3239501,-1.3280843 -0.4665953,0 -0.8765887,0.2464719 -1.1125935,0.6144327 L 1.6911113,1.0806701 c -0.045686,-0.016144 -0.09178,-0.02316 -0.1369425,-0.022738 z m 2.9476236,0.5384684 c 0.4414706,0 0.7947835,0.3533266 0.7947835,0.7989177 0,0.273754 -0.232152,0.7679149 -0.4862751,1.1560018 C 4.6561236,3.7867733 4.5993017,3.8435241 4.5017924,3.9652485 4.4043057,3.8435751 4.3476732,3.7870972 4.1932841,3.5513204 3.939161,3.1632335 3.707009,2.6690726 3.707009,2.3953186 c 0,-0.4455911 0.3533129,-0.7989177 0.7947834,-0.7989177 z m -2.914034,0.00982 1.609721,0.5694744 c -0.012039,0.071637 -0.020153,0.1446982 -0.020153,0.2196248 0,0.5116866 0.2969541,1.0244727 0.5725748,1.4453898 0.2756207,0.4209169 0.5508709,0.7379393 0.5508707,0.7379393 0.1055149,0.1217836 0.2944607,0.1217836 0.3999756,0 0,0 0.27525,-0.3170224 0.5508707,-0.7379393 0.1560372,-0.2382956 0.3175306,-0.506741 0.4299476,-0.7870337 l 0.3198773,0.1131715 c 0.055585,0.019679 0.1161499,0.020228 0.1720823,0.00156 l 4.6818836,-1.5585709 4.386295,1.5570109 c 0.05656,0.020058 0.08873,0.03901 0.10387,0.048576 V 15.322695 l -4.386812,-1.81436 c -0.06287,-0.02662 -0.133603,-0.02791 -0.197404,-0.0036 L 6.085675,15.319078 1.6911113,13.766201 c -0.055218,-0.01951 -0.087445,-0.03513 -0.1033529,-0.04496 z m 2.9135173,0.5177964 c -0.1462912,-1.257e-4 -0.2649832,0.1181036 -0.2651,0.2640666 -1.696e-4,0.1461649 0.1186064,0.2647095 0.2651,0.2645835 C 4.6475675,2.6525085 4.7660284,2.5340474 4.765859,2.3880839 4.7657424,2.2423222 4.6473652,2.1241761 4.5012757,2.1240173 Z M 5.8825867,3.7156515 5.7673482,4.2308653 6.285146,4.348171 6.4003845,3.8308897 Z M 7.4411479,4.1140767 7.283018,4.6179219 C 7.4464289,4.654598 7.5991919,4.7184031 7.7537887,4.7781213 L 7.9703128,4.2954633 C 7.8029085,4.2112432 7.6196388,4.1691803 7.4411479,4.1140767 Z M 8.9588846,4.7760517 8.6679464,5.2173685 C 8.81358,5.2948084 8.9287939,5.4022013 9.0467345,5.514508 L 9.4100198,5.1295186 C 9.2782377,4.9779457 9.1246349,4.8854559 8.9588846,4.7760517 Z M 9.3025328,6.1919861 C 9.2810337,6.3496406 9.2018561,6.4549188 9.1128804,6.5805928 L 9.5448955,6.8854836 C 9.7078876,6.705945 9.7486639,6.561458 9.8120628,6.3366805 Z M 8.4235169,7.2368833 7.9801329,7.5262713 8.269521,7.9691386 8.7123882,7.6802673 Z M 7.0897481,8.086444 C 6.928322,8.1769274 6.7858599,8.2935093 6.6386101,8.4047649 L 6.9548697,8.8285115 C 7.0826595,8.7143922 7.2254529,8.6267442 7.368796,8.5360254 Z M 5.8102398,9.1060198 C 5.6659014,9.2308359 5.5605308,9.3924746 5.443338,9.5416503 L 5.8608836,9.8677286 C 5.954956,9.7346408 6.0649296,9.6148233 6.1714584,9.4930747 Z M 13.241826,10.1473 c -0.728807,0 -1.32395,0.599927 -1.32395,1.330152 0,0.511687 0.296438,1.023956 0.572058,1.444873 0.275621,0.420917 0.552938,0.738456 0.552938,0.738456 0.105432,0.120596 0.292993,0.120596 0.398425,0 0,0 0.276801,-0.317539 0.552422,-0.738456 0.275619,-0.420917 0.572575,-0.933186 0.572575,-1.444873 0,-0.730225 -0.595661,-1.330152 -1.324468,-1.330152 z m -7.6894517,0.478524 -0.519348,0.10542 c 0.018328,0.237904 0.079022,0.391838 0.197405,0.581871 l 0.4490671,-0.277497 c -0.090855,-0.119469 -0.098257,-0.2662 -0.1271241,-0.409794 z m 7.6894517,0.05064 c 0.44147,0 0.794784,0.355395 0.794784,0.800985 0,0.273755 -0.232152,0.765848 -0.486275,1.153934 -0.154572,0.236058 -0.211042,0.294368 -0.308509,0.415996 -0.09747,-0.121628 -0.153936,-0.179938 -0.308508,-0.415996 -0.254123,-0.388086 -0.486275,-0.880179 -0.486275,-1.153934 0,-0.44559 0.353313,-0.800985 0.794783,-0.800985 z m 0,0.529167 c -0.146089,1.59e-4 -0.264466,0.118305 -0.264583,0.264066 -1.7e-4,0.145964 0.118291,0.264425 0.264583,0.264584 0.146494,1.26e-4 0.26527,-0.118419 0.2651,-0.264584 -1.17e-4,-0.145963 -0.118809,-0.264192 -0.2651,-0.264066 z m -6.8708971,0.425813 -0.2656168,0.458887 c 0.1591526,0.108038 0.3392675,0.16449 0.51728,0.234641 L 6.8163787,11.830945 C 6.6515767,11.773009 6.516071,11.706156 6.3709289,11.631444 Z m 1.4081829,0.488343 -0.094051,0.521415 0.519865,0.09405 0.095601,-0.519865 z m 1.5528766,0.22841 -0.058911,0.525549 c 0.1792005,0.02649 0.3601803,0.03053 0.5410464,0.04086 l 0.029456,-0.529167 c -0.171226,-0.0048 -0.3412795,-0.02163 -0.5115914,-0.03724 z m 1.5564936,0.07648 -0.0041,0.529166 0.529683,0.0036 0.0036,-0.529166 z"/></g></svg>